<?xml version="1.0" encoding="UTF-8"?>
<svg id="Layer_2" data-name="Layer 2" xmlns="http://www.w3.org/2000/svg" width="200" height="233.06" viewBox="0 0 200 233.06">
  <g id="Layer_1-2" data-name="Layer 1">
    <path d="M120.99,73.72h-38.35V0H0v233.06h120.99c46.28-1.32,79.01-34.38,79.01-79.67v-.33c0-44.96-32.73-78.02-79.01-79.34ZM184.8,152.03l-20.16,2.96c-13.36,1.96-23.73,12.68-25.24,26.11l-2.75,24.54c-.19,1.72-2.7,1.72-2.89,0l-2.75-24.54c-1.51-13.42-11.87-24.15-25.24-26.11l-20.16-2.96c-1.66-.24-1.66-2.64,0-2.88l20.16-2.96c13.36-1.96,23.73-12.68,25.24-26.11l2.75-24.54c.19-1.72,2.7-1.72,2.89,0l2.75,24.54c1.51,13.42,11.87,24.15,25.24,26.11l20.16,2.96c1.66.24,1.66,2.64,0,2.88Z" style="fill: #ff2845;"/>
  </g>
</svg>