<?xml version="1.0" encoding="UTF-8"?>
<svg id="Layer_2" data-name="Layer 2" xmlns="http://www.w3.org/2000/svg" width="117.13" height="277.24" viewBox="0 0 117.13 277.24">
  <g id="Layer_1-2" data-name="Layer 1">
    <path d="M74.1,75.42c1.84-3.72,2.61-5.3,2.8-7.37.3-3.13-1.43-7-3.76-9.11-.65-.59-1.24-1.08-1.62-1.4-3.57-2.91-8.26-3.02-5.99-8.98,5.38-14.1,11.27-23.71,11.91-39.75.2-4.97-.4-6.64-5.35-7.79-8.48-1.97-18.8-.6-27.44-.11-2.17.12-4.52-.19-6.67.02-5.24.52-10.42,4.31-14.21,7.74-.65.59-2.73,2.49-3.01,3.14-1.12,2.51,1.05,8.22,1.28,11.16.52,6.63-1.42,14.08.78,20.36.59,1.67,1.96,3.31,2.15,5.08.23,2.06-.42,3.7-.55,5.61-.26,4.02,1.26,7.66-1.01,11.31-6.02,9.67-17.67,16.81-21.12,28.4-.92,3.09-1.52,5.3,1.69,6.98,7.78,4.06,21.26,7.33,29.98,8.83,1.62.28,3.49.03,4.94.99-.04.64-.37,1.18-.71,1.7-2.08,3.25-6.06,6.64-8.37,10.1-6.53,9.78-1.81,14.3-2.46,24.04-.34,5.04-2.22,11.03-3.13,16.15-1.2,6.82-1.74,13.77-3.64,20.45-2.91,10.27-9.16,19.13-10.63,29.79-1.22,8.84-.86,22.19-5.46,29.75-1.41,2.32-4.05,4.2-4.42,7.09-.56,4.36,1.35,5.55,2.3,9.15.79,2.99.6,6.2,1.22,9.22.34.87,1.17,1.01,1.82.35.96-.97.23-3.02.79-4.28.36-.68,1.17.84,1.3,1.09,1.69,3.24,1.54,9.66,4.93,11.13,2.78,1.2,11.61.76,14.09-1,1.71-1.22,2.14-5.49,1.05-7.17-.56-.86-3.6-2.36-4.69-3.48-1.4-1.44-2.1-3.06-2.69-4.94-3.67-11.69-2.79-16.28.65-27.71,2.29-7.61,5.2-15.04,7.64-22.61.78-2.43,1.23-5.15,2.13-7.5,1.17-3.07,3.85-5.99,5.56-8.89,4.69-7.94,8.06-17.68,11.45-26.3,1.04-2.65,2-6.19,3.14-8.64.17-.36.34-.7.67-.95h.81c2.81,5.25,6.3,10.16,9.32,15.32,4.62,7.89,9.92,17.05,13.84,25.25,2.14,4.47,2.79,8.74,4.41,13.26,3.44,9.6,10.29,17.83,14.46,27.3,1.02,2.31,2.66,5.45,2.09,7.97-.19.82-1.66,2.24-1.96,3.39-.7,2.7.55,3.4,1.2,5.51,1.14,3.72,1.64,7.62,1.89,11.5.07,1.15-.32,4.67.38,5.24,1.51,1.23,1.96-1.31,2.04-2.29.17-1.98-.63-4.83.66-6.29,1.1,0,1.76,10.11,2.28,11.36,1.43,3.47,11.32,3.31,13.38.54,1.2-1.61,1.16-5.01-.05-6.65-.58-.78-1.25-1-1.83-1.65-3.89-4.39-3.23-14.16-4.9-20-1.06-3.7-3.09-7.22-4.28-10.98-2.05-6.43-3.19-13.17-5.27-19.6l-3.95-11.07c-3.09-6.16-5.11-12.55-7.21-19.02-3.28-10.11-4.48-20.66-7.66-30.62-2.55-8.01-6.97-15.52-9.57-23.36-2.1-6.32-6.37-9.74-4.74-15.4,1.71-5.95,3.41-14.95,3.61-21.07,0,0,1.4-15.7,3.7-20.33ZM51.2,9.75c.6-.61,11.76,2.64,12.84,3.63.94.86.22,3.01-.06,4.19-1.03,4.34-3.01,9.07-5.33,12.88-.46.75-2.15,3.48-2.76,3.66-.72-.79-.13-1.67-.12-2.53.06-4.73-.15-8.44-1.48-13-.36-1.23-3.47-8.44-3.08-8.83ZM32.8,76.18c1.68.3,7.4,8.7,8.5,10.53,1.33,2.21,4.35,7.63,4.75,9.97.68,3.97-2.5,5.98-6.16,5.36-2.52-.42-8.49-2.65-11.04-3.68-1.62-.66-9.63-4.46-10-5.82-.32-1.17,2.82-3.94,3.7-5.03,1.94-2.4,3.71-5.16,5.63-7.48.61-.73,3.28-3.73,3.94-3.85.25-.04.43-.04.68,0Z" style="fill: #ff2845;"/>
  </g>
</svg>