<?xml version="1.0" encoding="UTF-8"?>
<svg id="Layer_2" data-name="Layer 2" xmlns="http://www.w3.org/2000/svg" width="437.96" height="101.5" viewBox="0 0 437.96 101.5">
  <g id="Layer_1-2" data-name="Layer 1">
    <g>
      <g>
        <path d="M121.24,65.24h30.38v34.86h-33.18c-19.32,0-31.64-12.04-32.06-31.64V1.4h34.86v63.84Z" style="fill: #ff2845;"/>
        <path d="M255.5,1.4v67.06c.84,19.46,14.7,33.04,33.74,33.04h.14c11.41,0,21.03-4.98,27-13.19,2.49-3.42,3.78-7.56,3.76-11.79l-.11-20.89c-.61-5.96-5.14-10.77-11.05-11.73l-6.41-1.04c-1.08-.17-1.08-1.73,0-1.9l6.41-1.04c5.91-.96,10.45-5.77,11.05-11.73l.88-8.64c.12-1.15,1.8-1.15,1.91,0l.88,8.64c.61,5.96,5.14,10.77,11.05,11.73l6.41,1.04c1.08.17,1.08,1.73,0,1.9l-6.41,1.04c-5.91.96-10.45,5.77-11.05,11.73l-.11,20.79c-.02,3.95,1.06,7.85,3.3,11.1,5.97,8.67,15.83,13.97,27.6,13.97h.14c18.9,0,32.76-13.58,33.6-33.04V1.4h-132.72Z" style="fill: #ff2845;"/>
        <path d="M51.24,32.62h-16.24V1.4H0v98.7h51.24c19.6-.56,33.46-14.56,33.46-33.74v-.14c0-19.04-13.86-33.04-33.46-33.6ZM78.26,65.79l-8.54,1.25c-5.66.83-10.05,5.37-10.69,11.06l-1.17,10.39c-.08.73-1.14.73-1.22,0l-1.17-10.39c-.64-5.68-5.03-10.23-10.69-11.06l-8.54-1.25c-.7-.1-.7-1.12,0-1.22l8.54-1.25c5.66-.83,10.05-5.37,10.69-11.06l1.17-10.39c.08-.73,1.14-.73,1.22,0l1.17,10.39c.64,5.68,5.03,10.23,10.69,11.06l8.54,1.25c.7.1.7,1.12,0,1.22Z" style="fill: #ff2845;"/>
        <path d="M201.74,0c-28.28,0-51.1,22.54-51.1,50.54s22.96,50.96,51.1,50.96,50.68-22.82,50.68-50.96S229.6,0,201.74,0ZM240.35,32.55l-8.54,1.25c-5.66.83-10.05,5.37-10.69,11.06l-1.17,10.39c-.08.73-1.14.73-1.22,0l-1.17-10.39c-.64-5.68-5.03-10.23-10.69-11.06l-8.54-1.25c-.7-.1-.7-1.12,0-1.22l8.54-1.25c5.66-.83,10.05-5.37,10.69-11.06l1.17-10.39c.08-.73,1.14-.73,1.22,0l1.17,10.39c.64,5.68,5.03,10.23,10.69,11.06l8.54,1.25c.7.1.7,1.12,0,1.22Z" style="fill: #ff2845;"/>
      </g>
      <path d="M406.2,19.76V3.57h-6.05V.17h15.91v3.4h-5.88v16.19h-3.97ZM418.42,19.76V.17h6.2l3.56,13.49,3.59-13.49h6.2v19.59h-3.78V4.14l-4.23,15.62h-3.59l-4.21-15.62v15.62h-3.73Z" style="fill: #ff2845;"/>
    </g>
  </g>
</svg>